<svg version="1.2" xmlns="http://www.w3.org/2000/svg" viewBox="0 0 1078 264" width="1078" height="264">
	<title>logo-svg</title>
	<style>
		.s0 { fill: #000000 } 
	</style>
	<path id="Layer" class="s0" d="m288.6 23l-59.1 180.5h-44.8l-39.7-122.2-41 122.3h-44.7l-59.3-180.6h43.3l40.8 126.9 42.5-126.9h38.7l41.3 128 42-127.9z"/>
	<path id="Layer" fill-rule="evenodd" class="s0" d="m433.8 145.5h-105c3.9 17.3 18.6 27.9 39.8 27.9 14.7 0 25.2-4.4 34.8-13.4l21.4 23.2c-12.9 14.7-32.3 22.4-57.3 22.4-48 0-79.2-30.1-79.2-71.4 0-41.5 31.8-71.5 74-71.5 40.8 0 72.2 27.4 72.2 72 0.1 3.1-0.4 7.5-0.7 10.8zm-105.5-23.4h68.4c-2.8-17.6-16-28.9-34.1-28.9-18.3 0-31.4 11.1-34.3 28.9z"/>
	<path id="Layer" fill-rule="evenodd" class="s0" d="m612.6 134.2c0 43.6-30.2 71.4-69.2 71.4-18.5 0-33.5-5.9-43.5-18v16h-38.5v-191.4h40.3v67.3c10.3-11.3 24.5-16.7 41.7-16.7 39 0 69.2 27.8 69.2 71.4zm-40.8 0c0-24-15.2-38.4-35.3-38.4-20.1 0-35.4 14.4-35.4 38.4 0 24 15.3 38.4 35.4 38.4 20.1 0 35.3-14.4 35.3-38.4z"/>
	<path id="Layer" class="s0" d="m596.8 247.9l10.9-29.1q1.8 1.2 3.9 2.2 2 0.9 4.2 1.6 2.2 0.6 4.4 0.9 2.2 0.3 4.5 0.2c10 0 16.5-6.5 16.5-20.1v-138.8h40.2v138.5c0 32-18.8 52.4-52.4 52.4-12.3 0-24.4-2.3-32.2-7.8zm39.5-224.9c0-12.6 10.1-22.4 25-22.4 14.9 0 25 9.2 25 21.6 0 13.4-10.1 23.2-25 23.2-14.9 0-25-9.7-25-22.4z"/>
	<path id="Layer" class="s0" d="m1078 64.8l-62.7 147.3c-13.4 33.5-32.5 43.6-57.5 43.6-14.2 0-29.7-4.7-38.7-12.7l14.7-28.6q2.4 2.1 5 3.7 2.7 1.6 5.6 2.7 2.9 1.1 6 1.7 3 0.6 6.1 0.7c11.1 0 17.3-4.9 22.7-17.3l0.5-1.3-60.1-139.8h41.6l38.9 94.2 39.2-94.2z"/>
	<path id="Layer" class="s0" d="m907.7 184.9c-3.5 21.8-17 42.1-35.5 56.3-2.4 1.7-4.7 3.5-7.2 5.1q-3.6 2.3-7.6 4.4c-2.6 1.4-5.2 2.7-8 3.8-2.7 1.2-5.5 2.3-8.3 3.2q-8.5 2.9-17.3 4.3-8.9 1.4-17.8 1.4-9 0-17.8-1.4-8.8-1.4-17.3-4.3c-2.8-0.9-5.6-2.1-8.3-3.2-2.8-1-5.4-2.5-8-3.8-2.7-1.3-5.1-3-7.6-4.5-2.6-1.5-4.8-3.4-7.2-5.1-18.5-14.2-31.9-34.5-35.3-56.4 15 16 30.7 28.2 48 36.2 8.3 4 17 7 26 9.1 9 2 18.3 3.1 27.5 3.1 9.2 0 18.4-1 27.4-3 9.1-2.1 17.8-5.1 26.2-9 17.3-8.1 33.1-20.2 48.1-36.2z"/>
	<path id="Layer" class="s0" d="m801.2 57.1q3 0 6.1 0.4 3 0.4 6 1.2 2.9 0.7 5.8 1.8 2.8 1.1 5.6 2.6 2.9 1.6 5.7 3.4 2.8 1.8 5.4 3.9 2.7 2.1 5.1 4.4 2.4 2.4 4.6 4.9 2.3 2.7 4.5 5.7 2.1 2.9 4 6 1.8 3.1 3.4 6.3 1.6 3.3 3 6.6 1.4 3.6 2.4 7.3 1.1 3.7 1.8 7.5 0.7 3.8 1.1 7.6 0.3 3.8 0.3 7.7 0 3.8-0.4 7.7-0.3 3.8-1.1 7.5-0.8 3.8-1.9 7.5-1.1 3.6-2.6 7.2-1.4 3.3-3.1 6.5-1.6 3.3-3.6 6.4-1.9 3-4.1 5.9-2.2 3-4.6 5.7-2.3 2.5-4.7 4.8-2.5 2.3-5.2 4.4-2.6 2.1-5.5 4-2.8 1.8-5.8 3.4-2.8 1.5-5.6 2.6-2.9 1.1-5.9 1.9-3 0.8-6.1 1.2-3 0.4-6.1 0.4 1.1-1.4 2.2-2.9 1.2-1.5 2.2-3 1-1.5 2-3.1 0.9-1.6 1.8-3.3 1.1-2.1 2.2-4.3 1.1-2.2 2-4.4 1-2.3 1.9-4.5 0.9-2.3 1.7-4.6 0.9-2.7 1.7-5.4 0.8-2.8 1.5-5.5 0.8-2.8 1.4-5.5 0.6-2.8 1.1-5.6 0.6-3.1 1-6.2 0.4-3.1 0.7-6.3 0.3-3.1 0.4-6.2 0.2-3.2 0.2-6.3 0-3.2-0.1-6.3-0.1-3.2-0.4-6.3-0.2-3.2-0.6-6.3-0.4-3.1-0.9-6.3-0.5-2.8-1.1-5.5-0.5-2.8-1.2-5.6-0.6-2.7-1.4-5.5-0.7-2.7-1.6-5.4-0.7-2.3-1.5-4.6-0.8-2.2-1.7-4.5-0.9-2.2-1.9-4.4-1-2.1-2.1-4.3-0.9-1.6-1.8-3.2-0.9-1.6-1.9-3.1-1-1.6-2.1-3.1-1.1-1.5-2.2-2.9z"/>
	<circle id="Layer" class="s0" cx="761.9" cy="82.5" r="15.7"/>
	<circle id="Layer" class="s0" cx="761.9" cy="184.2" r="15.7"/>
</svg>